<svg width="32" height="32" viewBox="0 0 32 32" fill="none" xmlns="http://www.w3.org/2000/svg">
<path d="M16.0034 20.896C17.3781 20.896 18.5454 20.4197 19.5054 19.467C20.4654 18.5144 20.9454 17.3576 20.9454 15.9966C20.9454 14.6357 20.4643 13.48 19.502 12.5296C18.5397 11.5792 17.3712 11.104 15.9965 11.104C14.6218 11.104 13.4545 11.5803 12.4945 12.533C11.5345 13.4856 11.0545 14.6424 11.0545 16.0034C11.0545 17.3643 11.5356 18.52 12.4979 19.4704C13.4602 20.4208 14.6287 20.896 16.0034 20.896ZM15.9931 19.2256C15.0862 19.2256 14.3175 18.9113 13.6872 18.2828C13.0569 17.6543 12.7418 16.8911 12.7418 15.9932C12.7418 15.0953 13.0592 14.3344 13.6941 13.7104C14.3289 13.0864 15.0998 12.7744 16.0068 12.7744C16.9137 12.7744 17.6824 13.0887 18.3127 13.7172C18.943 14.3457 19.2581 15.1089 19.2581 16.0068C19.2581 16.9047 18.9407 17.6656 18.3058 18.2896C17.671 18.9136 16.9001 19.2256 15.9931 19.2256ZM16 24.64C13.1684 24.64 10.6084 23.8432 8.31995 22.2496C6.03147 20.656 4.3248 18.5728 3.19995 16C4.3248 13.4272 6.03147 11.344 8.31995 9.7504C10.6084 8.1568 13.1684 7.36 16 7.36C18.8315 7.36 21.3915 8.1568 23.68 9.7504C25.9684 11.344 27.6751 13.4272 28.8 16C27.6751 18.5728 25.9684 20.656 23.68 22.2496C21.3915 23.8432 18.8315 24.64 16 24.64ZM15.995 22.912C18.345 22.912 20.5042 22.2832 22.4727 21.0256C24.4412 19.768 25.9393 18.0928 26.9672 16C25.9393 13.9072 24.4428 12.232 22.4776 10.9744C20.5124 9.7168 18.3548 9.088 16.0049 9.088C13.6549 9.088 11.4957 9.7168 9.52722 10.9744C7.55874 12.232 6.05086 13.9072 5.00359 16C6.05086 18.0928 7.5571 19.768 9.52231 21.0256C11.4875 22.2832 13.6451 22.912 15.995 22.912Z" fill="#101010" fill-opacity="0.65"/>
</svg>
