<svg width="32" height="32" viewBox="0 0 32 32" fill="none" xmlns="http://www.w3.org/2000/svg">
<path d="M20.3345 17.3087L19.0545 16.0431C19.5587 14.6816 19.2969 13.5502 18.269 12.649C17.2412 11.7477 16.126 11.5176 14.9236 11.9586L13.6436 10.693C13.9733 10.4821 14.3418 10.3287 14.749 10.2328C15.1563 10.1369 15.5733 10.089 16 10.089C17.3769 10.089 18.5454 10.5636 19.5054 11.5128C20.4654 12.462 20.9454 13.6174 20.9454 14.9789C20.9454 15.4007 20.8921 15.8178 20.7854 16.2301C20.6787 16.6424 20.5284 17.0019 20.3345 17.3087ZM24.0872 21.0193L22.9236 19.8687C23.8739 19.1784 24.703 18.4066 25.4109 17.5532C26.1187 16.6999 26.6375 15.8418 26.9672 14.9789C25.9975 12.8503 24.543 11.1676 22.6036 9.93077C20.6642 8.69391 18.56 8.07549 16.2909 8.07549C15.4763 8.07549 14.6424 8.15219 13.789 8.3056C12.9357 8.45901 12.2666 8.64118 11.7818 8.85212L10.4436 7.5002C11.1224 7.19339 11.9903 6.92492 13.0472 6.69481C14.1042 6.4647 15.1369 6.34964 16.1454 6.34964C18.9187 6.34964 21.4545 7.13107 23.7527 8.69391C26.0509 10.2568 27.7333 12.3517 28.8 14.9789C28.2957 16.2061 27.646 17.3279 26.8509 18.3442C26.0557 19.3606 25.1345 20.2523 24.0872 21.0193ZM25.7745 27.52L20.8872 22.7739C20.2084 23.0424 19.4424 23.2485 18.589 23.3923C17.7357 23.5362 16.8727 23.6081 16 23.6081C13.1684 23.6081 10.5987 22.8266 8.29086 21.2638C5.98298 19.701 4.28601 17.606 3.19995 14.9789C3.58783 13.9817 4.12601 13.0085 4.8145 12.0593C5.50298 11.1101 6.34177 10.204 7.33086 9.3411L3.66541 5.71683L4.88722 4.47998L26.909 26.2544L25.7745 27.52ZM8.52359 10.5492C7.80601 11.0669 7.11268 11.7477 6.44359 12.5914C5.7745 13.4352 5.2945 14.231 5.00359 14.9789C5.99268 17.1074 7.48116 18.7901 9.46904 20.0269C11.4569 21.2638 13.7115 21.8822 16.2327 21.8822C16.8727 21.8822 17.503 21.8439 18.1236 21.7672C18.7442 21.6905 19.2096 21.5754 19.52 21.422L17.6581 19.5811C17.4448 19.677 17.183 19.7489 16.8727 19.7968C16.5624 19.8448 16.2715 19.8687 16 19.8687C14.6424 19.8687 13.4787 19.3989 12.509 18.4593C11.5393 17.5197 11.0545 16.3595 11.0545 14.9789C11.0545 14.6912 11.0787 14.4036 11.1272 14.1159C11.1757 13.8283 11.2484 13.5694 11.3454 13.3393L8.52359 10.5492Z" fill="#101010" fill-opacity="0.65"/>
</svg>
