<svg width="40" height="40" viewBox="0 0 40 40" fill="none" xmlns="http://www.w3.org/2000/svg">
<path d="M20 25C21.3888 25 22.5694 24.5139 23.5416 23.5417C24.5138 22.5694 25 21.3889 25 20C25 18.6111 24.5138 17.4305 23.5416 16.4583C22.5694 15.4861 21.3888 15 20 15C18.6111 15 17.4305 15.4861 16.4583 16.4583C15.4861 17.4305 15 18.6111 15 20C15 21.3889 15.4861 22.5694 16.4583 23.5417C17.4305 24.5139 18.6111 25 20 25ZM20 28.3333C17.6944 28.3333 15.7291 27.5208 14.1041 25.8958C12.4791 24.2708 11.6666 22.3055 11.6666 20C11.6666 17.6944 12.4791 15.7292 14.1041 14.1042C15.7291 12.4792 17.6944 11.6667 20 11.6667C22.3055 11.6667 24.2708 12.4792 25.8958 14.1042C27.5208 15.7292 28.3333 17.6944 28.3333 20C28.3333 22.3055 27.5208 24.2708 25.8958 25.8958C24.2708 27.5208 22.3055 28.3333 20 28.3333ZM3.33329 21.6667C2.86107 21.6667 2.46524 21.5069 2.14579 21.1875C1.82635 20.868 1.66663 20.4722 1.66663 20C1.66663 19.5278 1.82635 19.1319 2.14579 18.8125C2.46524 18.493 2.86107 18.3333 3.33329 18.3333H6.66663C7.13885 18.3333 7.53468 18.493 7.85413 18.8125C8.17357 19.1319 8.33329 19.5278 8.33329 20C8.33329 20.4722 8.17357 20.868 7.85413 21.1875C7.53468 21.5069 7.13885 21.6667 6.66663 21.6667H3.33329ZM33.3333 21.6667C32.8611 21.6667 32.4652 21.5069 32.1458 21.1875C31.8263 20.868 31.6666 20.4722 31.6666 20C31.6666 19.5278 31.8263 19.1319 32.1458 18.8125C32.4652 18.493 32.8611 18.3333 33.3333 18.3333H36.6666C37.1388 18.3333 37.5347 18.493 37.8541 18.8125C38.1736 19.1319 38.3333 19.5278 38.3333 20C38.3333 20.4722 38.1736 20.868 37.8541 21.1875C37.5347 21.5069 37.1388 21.6667 36.6666 21.6667H33.3333ZM20 8.33332C19.5277 8.33332 19.1319 8.1736 18.8125 7.85416C18.493 7.53471 18.3333 7.13888 18.3333 6.66666V3.33332C18.3333 2.8611 18.493 2.46527 18.8125 2.14582C19.1319 1.82638 19.5277 1.66666 20 1.66666C20.4722 1.66666 20.868 1.82638 21.1875 2.14582C21.5069 2.46527 21.6666 2.8611 21.6666 3.33332V6.66666C21.6666 7.13888 21.5069 7.53471 21.1875 7.85416C20.868 8.1736 20.4722 8.33332 20 8.33332ZM20 38.3333C19.5277 38.3333 19.1319 38.1736 18.8125 37.8542C18.493 37.5347 18.3333 37.1389 18.3333 36.6667V33.3333C18.3333 32.8611 18.493 32.4653 18.8125 32.1458C19.1319 31.8264 19.5277 31.6667 20 31.6667C20.4722 31.6667 20.868 31.8264 21.1875 32.1458C21.5069 32.4653 21.6666 32.8611 21.6666 33.3333V36.6667C21.6666 37.1389 21.5069 37.5347 21.1875 37.8542C20.868 38.1736 20.4722 38.3333 20 38.3333ZM9.41663 11.75L7.62496 9.99999C7.29163 9.69443 7.1319 9.30555 7.14579 8.83332C7.15968 8.3611 7.3194 7.95832 7.62496 7.62499C7.95829 7.29166 8.36107 7.12499 8.83329 7.12499C9.30552 7.12499 9.6944 7.29166 9.99996 7.62499L11.75 9.41666C12.0555 9.74999 12.2083 10.1389 12.2083 10.5833C12.2083 11.0278 12.0555 11.4167 11.75 11.75C11.4444 12.0833 11.0625 12.243 10.6041 12.2292C10.1458 12.2153 9.74996 12.0555 9.41663 11.75ZM30 32.375L28.25 30.5833C27.9444 30.25 27.7916 29.8542 27.7916 29.3958C27.7916 28.9375 27.9444 28.5555 28.25 28.25C28.5555 27.9167 28.9375 27.7569 29.3958 27.7708C29.8541 27.7847 30.25 27.9444 30.5833 28.25L32.375 30C32.7083 30.3055 32.868 30.6944 32.8541 31.1667C32.8402 31.6389 32.6805 32.0417 32.375 32.375C32.0416 32.7083 31.6388 32.875 31.1666 32.875C30.6944 32.875 30.3055 32.7083 30 32.375ZM28.25 11.75C27.9166 11.4444 27.7569 11.0625 27.7708 10.6042C27.7847 10.1458 27.9444 9.74999 28.25 9.41666L30 7.62499C30.3055 7.29166 30.6944 7.13193 31.1666 7.14582C31.6388 7.15971 32.0416 7.31943 32.375 7.62499C32.7083 7.95832 32.875 8.3611 32.875 8.83332C32.875 9.30555 32.7083 9.69443 32.375 9.99999L30.5833 11.75C30.25 12.0555 29.8611 12.2083 29.4166 12.2083C28.9722 12.2083 28.5833 12.0555 28.25 11.75ZM7.62496 32.375C7.29163 32.0417 7.12496 31.6389 7.12496 31.1667C7.12496 30.6944 7.29163 30.3055 7.62496 30L9.41663 28.25C9.74996 27.9444 10.1458 27.7917 10.6041 27.7917C11.0625 27.7917 11.4444 27.9444 11.75 28.25C12.0833 28.5555 12.243 28.9375 12.2291 29.3958C12.2152 29.8542 12.0555 30.25 11.75 30.5833L9.99996 32.375C9.6944 32.7083 9.30552 32.868 8.83329 32.8542C8.36107 32.8403 7.95829 32.6805 7.62496 32.375Z" fill="white"/>
</svg>
